<?xml version="1.0" encoding="utf-8"?>
<!-- Generator: Adobe Illustrator 22.0.0, SVG Export Plug-In . SVG Version: 6.00 Build 0)  -->
<svg version="1.0" id="图层_1" xmlns:serif="http://www.serif.com/"
	 xmlns="http://www.w3.org/2000/svg" xmlns:xlink="http://www.w3.org/1999/xlink" x="0px" y="0px" viewBox="0 0 2450 532"
	 enable-background="new 0 0 2450 532" xml:space="preserve">
<linearGradient id="SVGID_1_" gradientUnits="userSpaceOnUse" x1="958.7094" y1="370.3721" x2="1465.5278" y2="370.3721">
	<stop  offset="0" style="stop-color:#0050B5"/>
	<stop  offset="1" style="stop-color:#0B87FD"/>
</linearGradient>
<path fill="url(#SVGID_1_)" d="M1118.4,210L1118.4,210c-88.5,0-160.4,71.9-160.4,160.4s71.9,160.4,160.4,160.4
	c88.5,0,160.4-71.9,160.4-160.4S1206.9,210,1118.4,210z M1118.4,459.6c-49.2,0-89.2-40-89.2-89.2c0-49.2,40-89.2,89.2-89.2l0,0
	c49.2,0,89.2,40,89.2,89.2C1207.6,419.6,1167.6,459.6,1118.4,459.6z"/>
<linearGradient id="SVGID_2_" gradientUnits="userSpaceOnUse" x1="453.4061" y1="370.3721" x2="975.988" y2="370.3721">
	<stop  offset="0" style="stop-color:#0050B5"/>
	<stop  offset="1" style="stop-color:#0B87FD"/>
</linearGradient>
<path fill="url(#SVGID_2_)" d="M770.7,220.6c-11.7-2.1-31-5.6-44.3-8c-3.6-0.7-7.4,0.3-10.2,2.7c-2.8,2.4-4.5,5.9-4.5,9.5
	c0,5.2,0,11.7,0,19.1c-27.2-21.3-61.5-34-98.7-34v0c-88.5,0-160.4,71.9-160.4,160.4s71.9,160.4,160.4,160.4
	c37.2,0,71.5-12.7,98.7-34c0,8.6,0,15.9,0,21.5c0,3.3,1.3,6.5,3.6,8.8c2.3,2.3,5.5,3.6,8.8,3.6c12.5,0,31.8,0,44.3,0
	c3.3,0,6.5-1.3,8.8-3.6s3.6-5.5,3.6-8.8c0-50.4,0-239,0-285.5C780.9,226.8,776.6,221.7,770.7,220.6z M613.1,459.6
	c-49.2,0-89.2-40-89.2-89.2c0-49.2,40-89.2,89.2-89.2c49.2,0,89.2,40,89.2,89.2C702.3,419.6,662.3,459.6,613.1,459.6z"/>
<linearGradient id="SVGID_3_" gradientUnits="userSpaceOnUse" x1="-0.7663" y1="669.023" x2="0.2337" y2="669.023" gradientTransform="matrix(3.103367e-14 -506.8185 -506.8185 -3.103367e-14 339950.75 141.6479)">
	<stop  offset="0" style="stop-color:#0050B5"/>
	<stop  offset="1" style="stop-color:#0B87FD"/>
</linearGradient>
<path fill="url(#SVGID_3_)" d="M920.2,50.4c0-4.9-2-9.7-5.5-13.2c-3.5-3.5-8.2-5.5-13.2-5.5c-14.2,0-33.8,0-48,0
	c-4.9,0-9.7,2-13.2,5.5c-3.5,3.5-5.5,8.2-5.5,13.2c0,78.7,0,383,0,461.7c0,4.9,2,9.7,5.5,13.2c3.5,3.5,8.2,5.5,13.2,5.5
	c14.2,0,33.8,0,48,0c4.9,0,9.7-2,13.2-5.5c3.5-3.5,5.5-8.2,5.5-13.2C920.2,433.4,920.2,129.1,920.2,50.4L920.2,50.4z"/>
<g>
	
		<linearGradient id="SVGID_4_" gradientUnits="userSpaceOnUse" x1="-0.7663" y1="669.2142" x2="0.2337" y2="669.2142" gradientTransform="matrix(-2.339612e-13 282.0651 282.9224 2.332525e-13 -188985.625 223.0693)">
		<stop  offset="0" style="stop-color:#0048AF"/>
		<stop  offset="1" style="stop-color:#003580"/>
	</linearGradient>
	<path fill="url(#SVGID_4_)" d="M301.6,498.2c0,8.2,3.3,16.2,9.1,22c5.8,5.8,13.8,9.1,22,9.1c11.1,0,23.7,0,34.8-0.1
		c17.1,0,31-13.9,31-31.1V38.7c0-8.2-3.3-16.1-9.1-22c-5.8-5.8-13.7-9.1-22-9.1h-34.8c-8.2,0-16.1,3.3-22,9.1s-9.1,13.7-9.1,22
		C301.6,131.4,301.6,405.4,301.6,498.2L301.6,498.2z"/>
	<path fill="#0051B0" d="M367.4,200.1c8.2,0,16.2,3.3,22,9.1c5.8,5.8,9.1,13.7,9.1,22c0,62.8,0,204.1,0,266.9c0,8.2-3.3,16.2-9.1,22
		c-5.8,5.8-13.7,9.1-22,9.1c-11.1,0-23.7,0-34.8,0c-8.2,0-16.2-3.3-22-9.1c-5.8-5.8-9.1-13.7-9.1-22c0-40.7,0-111.7,0-152.5
		c0-8.2-3.3-16.2-9.1-22c-5.8-5.8-13.7-9.1-22-9.1c-77.2,0-271.2,0-271.2,0V200.1H367.4L367.4,200.1z"/>
	
		<linearGradient id="SVGID_5_" gradientUnits="userSpaceOnUse" x1="-0.7663" y1="669.1241" x2="0.2337" y2="669.1241" gradientTransform="matrix(3.294615e-14 536.4214 538.0513 -3.284632e-14 -359975.4063 411.2657)">
		<stop  offset="0" style="stop-color:#0B89FF"/>
		<stop  offset="1" style="stop-color:#004EB2"/>
	</linearGradient>
	<path fill="url(#SVGID_5_)" d="M-0.8,498.2c0,8.2,3.3,16.2,9.1,22c5.8,5.8,13.8,9.1,22,9.1c11.1,0,23.7-0.1,34.8-0.1
		c17.1,0,31-13.9,31-31.1c0-92.7,0-366.9,0-459.5c0-17.1-13.9-31-31-31.1c-11.1,0-23.7-0.1-34.8-0.1c-8.2,0-16.2,3.2-22,9.1
		c-5.8,5.8-9.1,13.7-9.1,22C-0.8,38.5-0.8,498.2-0.8,498.2z"/>
</g>
<g>
	<linearGradient id="SVGID_6_" gradientUnits="userSpaceOnUse" x1="1333.1079" y1="265.6798" x2="1640.2368" y2="265.6798">
		<stop  offset="0" style="stop-color:#F30071"/>
		<stop  offset="1" style="stop-color:#5B59FD"/>
	</linearGradient>
	<path fill="url(#SVGID_6_)" d="M1575.7,20c-20.6-11.3-45-17-73.2-17h-98.3H1371h-25.9c-6.6,0-12,5.4-12,12v501.4
		c0,6.6,5.4,12,12,12h47.2c6.6,0,12-5.4,12-12V336.6c0-6.6,5.4-12,12-12h86.3c27.9,0,52.3-5.6,73-16.8
		c20.7-11.2,36.7-27.3,47.9-48.2c11.2-21,16.8-45.6,16.8-74.1v-41.9c0-28.7-5.6-53.6-16.8-74.8C1612.2,47.6,1596.3,31.3,1575.7,20z
		 M1567.2,184.7c0,14.5-2.5,27.2-7.6,38.1c-5.1,11-12.3,19.4-21.9,25.3c-9.5,5.9-20.5,8.9-33.1,8.9h-88.5c-6.6,0-12-5.4-12-12V82.6
		c0-6.6,5.4-12,12-12h88.5c12.5,0,23.5,3,33.1,9c9.5,6,16.8,14.6,21.9,25.7c5.1,11.1,7.6,24.1,7.6,39V184.7z"/>
	<linearGradient id="SVGID_7_" gradientUnits="userSpaceOnUse" x1="1701.1421" y1="266.0411" x2="1825.0776" y2="266.0411">
		<stop  offset="0" style="stop-color:#F30071"/>
		<stop  offset="1" style="stop-color:#5B59FD"/>
	</linearGradient>
	<path fill="url(#SVGID_7_)" d="M1778.8,453.6c-4.3-5.5-6.5-13.4-6.5-23.5V13.9c0-6-4.9-10.9-10.9-10.9h-49.4
		c-6,0-10.9,4.9-10.9,10.9v415.8c0,31.6,7.6,56,22.9,73.3c15.3,17.3,36.9,26,64.9,26h25.2c6,0,10.9-4.9,10.9-10.9v-45.4
		c0-6-4.9-10.9-10.9-10.9h-16.9C1789.3,461.9,1783.2,459.1,1778.8,453.6z"/>
	<linearGradient id="SVGID_8_" gradientUnits="userSpaceOnUse" x1="1867.9165" y1="343.546" x2="2128.4341" y2="343.546">
		<stop  offset="0" style="stop-color:#F30071"/>
		<stop  offset="1" style="stop-color:#5B59FD"/>
	</linearGradient>
	<path fill="url(#SVGID_8_)" d="M2057.6,407.3c0,18.8-5.1,33.2-15.2,43.2c-10.1,10-24.7,15-43.7,15c-19.3,0-34-5.4-44.3-16.1
		c-10.2-10.7-15.4-26-15.4-45.7V164.2c0-6-4.9-10.9-10.9-10.9h-49.4c-6,0-10.9,4.9-10.9,10.9v240.9c0,41.4,9.2,73.2,27.5,95.4
		c18.3,22.2,44.7,33.2,79.1,33.2c21.9,0,40.3-5.7,55.1-17.2c3.3-2.5,6.3-5.2,9.2-8.2c6.9-7,18.8-2.3,18.8,7.6v1.4
		c0,6,4.9,10.9,10.9,10.9h49c6,0,10.9-4.9,10.9-10.9V164.2c0-6-4.9-10.9-10.9-10.9h-49c-6,0-10.9,4.9-10.9,10.9V407.3z"/>
	<linearGradient id="SVGID_9_" gradientUnits="userSpaceOnUse" x1="2175.0513" y1="340.6554" x2="2446.606" y2="340.6554">
		<stop  offset="0" style="stop-color:#F30071"/>
		<stop  offset="1" style="stop-color:#5B59FD"/>
	</linearGradient>
	<path fill="url(#SVGID_9_)" d="M2430.5,354.2c-10.7-15.4-23.9-26.1-39.6-32.2c-15.5-6-34.6-11-57.4-15c-0.4-0.1-0.8-0.1-1.1-0.1
		c-0.4,0-0.9-0.1-1.4-0.2c-0.3-0.1-0.6-0.1-0.9-0.2c-0.9-0.2-1.8-0.4-2.7-0.4l0,0c-0.7,0-1.2-0.1-1.4-0.4c-16.9-2.6-30-5.4-39.4-8.1
		c-9.4-2.8-17.1-7-23.1-12.8c-6-5.8-9-13.8-9-24.2c0-16.4,4.9-28.7,14.6-37s24.1-12.5,43.2-12.5c15.2,0,28.1,3.7,38.8,11.2
		c8.5,5.9,15.5,14.2,21.2,24.9c2.7,5,8.8,7.1,14,4.8l44.9-19.8c5.4-2.4,7.9-8.6,5.7-14.1c-5.5-13.7-12.8-25.3-21.9-35
		c-11.2-11.9-25.4-20.8-42.5-26.7c-17.1-5.9-37.2-8.9-60.3-8.9c-27.2,0-50.3,4.4-69.2,13.2c-18.9,8.8-33.2,21.7-43,38.7
		s-14.6,37.9-14.6,62.7c0,24.6,4.9,44,14.6,58.4c9.8,14.3,22,24.8,36.7,31.3c14.4,6.4,31.9,11.6,52.4,15.7c0.6,0.1,1.1,0.2,1.7,0.2
		c0.7,0,1.3,0.1,1.8,0.2c0.4,0.1,0.7,0.2,1.1,0.3c0.9,0.4,1.7,0.7,2.6,0.8c1.3,0.2,2.6,0.3,3.7,0.5c1.6,0.2,3.1,0.5,4.5,0.7
		c17.1,3.1,30.4,6.1,39.7,9s17.3,7.4,23.7,13.5c6.4,6.1,9.6,14.8,9.6,25.8c0,16.6-5.8,29.4-17.3,38.3c-11.6,8.9-28.3,13.4-50.2,13.4
		c-17.6,0-32.5-4.5-44.8-13.5c-10-7.4-18.3-17.7-25-31.1c-2.6-5.3-8.9-7.5-14.2-5.2l-44.5,19.8c-5.2,2.3-7.7,8.2-5.9,13.5
		c5.3,15.6,13,29,22.9,40.2c11.9,13.5,27.2,23.5,45.9,30c14,4.9,22.8,7.9,26.3,9.1c1.2,0.4,2.4,0.6,3.6,0.6h35.7
		c29.4,0,54.3-4.4,74.6-13.2c20.4-8.8,35.8-21.8,46.3-39c10.5-17.2,15.7-38.2,15.7-63.1C2446.6,391.1,2441.2,369.6,2430.5,354.2z"/>
</g>
</svg>
